<svg width="89" height="89" viewBox="0 0 89 89" fill="none" xmlns="http://www.w3.org/2000/svg">
<g clip-path="url(#clip0_23_954)">
<path d="M65.5742 35.4609V78H17.7129C14.5628 78 12 75.3978 12 72.1992V41.2617C12 38.0632 14.5628 35.4609 17.7129 35.4609H26.5964C29.3438 49.265 42.4409 64.7469 43.061 65.4734C43.4227 65.8971 43.9476 66.1406 44.5 66.1406C45.0524 66.1406 45.5773 65.8971 45.939 65.4734C46.5591 64.747 59.6562 49.265 62.4036 35.4609H65.5742ZM44.5 19.7344C38.5498 19.7344 33.709 24.6497 33.709 30.6914C33.709 36.7331 38.5498 41.6484 44.5 41.6484C50.4502 41.6484 55.291 36.7331 55.291 30.6914C55.291 24.6497 50.4502 19.7344 44.5 19.7344Z" fill="url(#paint0_linear_23_954)"/>
<path d="M71.2871 78H65.5742V35.4609H71.2871C74.4372 35.4609 77 38.0632 77 41.2617V72.1992C77 75.3978 74.4372 78 71.2871 78ZM15.4018 48.1093L12 46.958V66.5031L15.4018 65.3517C19.0564 64.1147 21.5215 60.642 21.5215 56.7305C21.5215 52.8189 19.0564 49.3462 15.4018 48.1093V48.1093ZM44.5 12C34.3497 12 26.0918 20.385 26.0918 30.6914C26.0918 45.4231 42.3681 64.6616 43.061 65.4734C43.4227 65.8971 43.9476 66.1406 44.5 66.1406C45.0524 66.1406 45.5773 65.8971 45.939 65.4734C46.6319 64.6616 62.9082 45.4231 62.9082 30.6914C62.9082 20.385 54.6503 12 44.5 12ZM44.5 41.6484C38.5498 41.6484 33.709 36.7331 33.709 30.6914C33.709 24.6497 38.5498 19.7344 44.5 19.7344C50.4502 19.7344 55.291 24.6497 55.291 30.6914C55.291 36.7331 50.4502 41.6484 44.5 41.6484Z" fill="url(#paint1_linear_23_954)"/>
</g>
<defs>
<linearGradient id="paint0_linear_23_954" x1="38.7871" y1="78" x2="38.7871" y2="19.7344" gradientUnits="userSpaceOnUse">
<stop stop-color="#21E8A0"/>
<stop offset="1" stop-color="#4BFFAB"/>
</linearGradient>
<linearGradient id="paint1_linear_23_954" x1="44.5" y1="78" x2="44.5" y2="12" gradientUnits="userSpaceOnUse">
<stop stop-color="#C5FFE3"/>
<stop offset="1" stop-color="#BDFFE0"/>
</linearGradient>
<clipPath id="clip0_23_954">
<rect width="65" height="66" fill="white" transform="translate(12 12)"/>
</clipPath>
</defs>
</svg>
