<svg width="89" height="88" viewBox="0 0 89 88" fill="none" xmlns="http://www.w3.org/2000/svg">
<path d="M82.7708 58.9288C82.7708 76.7461 60.2445 84.8498 48.6405 71.2071L44.4526 66.2833L38.1972 58.9288L32.9294 52.7356C27.0763 45.8542 15.714 49.9418 15.714 58.9288C15.714 67.9159 27.0763 72.0034 32.9294 65.1221L38.1972 58.9288L44.4526 66.2833L40.2646 71.2071C28.6606 84.8498 6.13428 76.7461 6.13428 58.929V58.9288C6.13428 41.1117 28.6606 33.008 40.2646 46.6507L44.4526 51.5745L50.7079 58.929L55.9757 65.1222C61.8288 72.0036 73.1911 67.916 73.1911 58.929C73.1911 49.9419 61.8288 45.8544 55.9757 52.7357L50.7079 58.929L44.4526 51.5745L48.6405 46.6507C60.2445 33.008 82.7708 41.1117 82.7708 58.9288V58.9288Z" fill="url(#paint0_linear_23_620)"/>
<path d="M15.6162 15.4822C11.6631 15.4822 9.08265 18.1908 9.08265 22.034C9.08265 25.8956 11.6814 28.6042 15.6345 28.6042C19.0019 28.6042 20.9968 26.5179 21.7654 24.6328V21.1556H15.0672V23.7361H18.6725C18.1418 24.8524 17.2267 25.4381 15.9822 25.4381C13.8593 25.4381 12.7246 24.2485 12.7246 22.034C12.7246 20.0575 13.8227 18.7947 15.6345 18.7947C16.6228 18.7947 17.3548 19.179 17.7575 19.8562H21.619C21.1066 17.1659 18.8738 15.4822 15.6162 15.4822ZM25.8619 24.0289C25.8619 22.455 26.6855 21.9791 28.1679 21.9791H29.1745V18.1542C27.8019 18.1542 26.6306 18.9411 25.8619 20.0575V18.2457H22.2749V28.5127H25.8619V24.0289ZM28.7767 23.37C28.7767 26.646 30.7166 28.6408 33.1507 28.6408C34.5965 28.6408 35.6397 28.0003 36.1704 27.0852V28.5127H39.7575V18.2457H36.1704V19.6732C35.6397 18.7581 34.6148 18.1176 33.1507 18.1176C30.7166 18.1176 28.7767 20.0941 28.7767 23.37ZM36.1704 23.37C36.1704 24.7609 35.3103 25.5113 34.3037 25.5113C33.2788 25.5113 32.437 24.7426 32.437 23.37C32.437 21.9791 33.2788 21.2471 34.3037 21.2471C35.3103 21.2471 36.1704 21.9974 36.1704 23.37ZM41.2708 24.6145C41.2708 27.561 42.9362 28.5127 45.2055 28.5127H46.7611V25.4564H45.718C45.114 25.4564 44.8761 25.2185 44.8761 24.6694V21.2288H46.7428V18.2457H44.8761V15.7567H41.2708V18.2457H40.008V21.2288H41.2708V24.6145ZM57.8133 18.2457H54.2079V23.7544C54.2079 24.9439 53.5491 25.6394 52.5059 25.6394C51.481 25.6394 50.8039 24.9439 50.8039 23.7544V18.2457H47.2351V24.2119C47.2351 26.9205 48.7175 28.6042 51.0967 28.6042C52.5425 28.6042 53.6223 27.9271 54.2079 27.0486V28.5127H57.8133V18.2457ZM58.7566 28.5127H62.3437V18.2457H58.7566V28.5127ZM60.5685 17.294C61.8313 17.294 62.6548 16.4887 62.6548 15.4639C62.6548 14.4207 61.8313 13.5971 60.5685 13.5971C59.2874 13.5971 58.4638 14.4207 58.4638 15.4639C58.4638 16.4887 59.2874 17.294 60.5685 17.294ZM63.8557 24.6145C63.8557 27.561 65.5211 28.5127 67.7905 28.5127H69.3461V25.4564H68.3029C67.699 25.4564 67.461 25.2185 67.461 24.6694V21.2288H69.3278V18.2457H67.461V15.7567H63.8557V18.2457H62.5929V21.2288H63.8557V24.6145ZM80.0688 23.37C80.0688 20.1124 77.7445 18.1176 74.6882 18.1176C71.6319 18.1176 69.3076 20.1124 69.3076 23.37C69.3076 26.646 71.6136 28.6408 74.6699 28.6408C77.7262 28.6408 80.0688 26.646 80.0688 23.37ZM72.9679 23.37C72.9679 21.9059 73.7731 21.2288 74.6882 21.2288C75.6033 21.2288 76.4268 21.9059 76.4268 23.37C76.4268 24.8524 75.585 25.5296 74.6699 25.5296C73.7365 25.5296 72.9679 24.8524 72.9679 23.37Z" fill="url(#paint1_linear_23_620)"/>
<defs>
<linearGradient id="paint0_linear_23_620" x1="44.4526" y1="78.0565" x2="44.4526" y2="39.8012" gradientUnits="userSpaceOnUse">
<stop stop-color="#5558FF"/>
<stop offset="1" stop-color="#00C0FF"/>
</linearGradient>
<linearGradient id="paint1_linear_23_620" x1="44.5001" y1="37.1088" x2="44.5001" y2="9.51268" gradientUnits="userSpaceOnUse">
<stop stop-color="#5558FF"/>
<stop offset="1" stop-color="#00C0FF"/>
</linearGradient>
</defs>
</svg>
