<svg width="89" height="89" viewBox="0 0 89 89" fill="none" xmlns="http://www.w3.org/2000/svg">
<path d="M25.6326 31.1364C26.4169 31.5444 27.3804 31.4801 28.1064 30.9497C28.8298 30.4245 29.1937 29.5354 29.0463 28.6554L28.2217 23.6984L31.8014 20.1741C32.4371 19.5476 32.6675 18.6146 32.3911 17.7647C32.1146 16.9147 31.3821 16.2928 30.4976 16.1591L25.5313 15.4128L23.2831 10.9187C22.4814 9.32012 19.8647 9.32012 19.0631 10.9187L16.8149 15.4128L11.8485 16.1591C10.964 16.2928 10.2315 16.9147 9.95508 17.7647C9.67863 18.6146 9.90901 19.5476 10.5448 20.1741L14.1244 23.6984L13.2998 28.6554C13.1523 29.5354 13.5164 30.4245 14.2397 30.9497C14.9631 31.4749 15.9212 31.5418 16.7136 31.1364L21.1731 28.8215L25.6326 31.1364ZM37.7121 18.5616L36.8875 23.5187C36.74 24.3986 37.104 25.2877 37.8274 25.8129C38.5508 26.3404 39.5136 26.405 40.3013 25.9996L44.7608 23.6846L49.2203 25.9996C50.0046 26.4077 50.9681 26.3434 51.6941 25.8129C52.4175 25.2877 52.7814 24.3986 52.634 23.5187L51.8094 18.5616L55.3891 15.0373C56.0248 14.4108 56.2552 13.4778 55.9788 12.6279C55.7023 11.778 54.9698 11.156 54.0853 11.0224L49.119 10.2761L46.8708 5.78197C46.0691 4.18335 43.4524 4.18335 42.6508 5.78197L40.4025 10.2761L35.4362 11.0224C34.5517 11.156 33.8192 11.778 33.5428 12.6279C33.2663 13.4778 33.4967 14.4108 34.1325 15.0373L37.7121 18.5616ZM79.5664 17.7647C79.29 16.9147 78.5575 16.2928 77.673 16.1591L72.7067 15.4128L70.4585 10.9187C69.6568 9.32012 67.0401 9.32012 66.2385 10.9187L63.9902 15.4128L59.0239 16.1591C58.1394 16.2928 57.4069 16.9147 57.1305 17.7647C56.854 18.6146 57.0844 19.5476 57.7202 20.1741L61.2998 23.6984L60.4752 28.6554C60.3277 29.5354 60.6917 30.4245 61.4151 30.9497C62.1337 31.4749 63.0966 31.5418 63.889 31.1364L68.3485 28.8215L72.8079 31.1365C73.5923 31.5446 74.5558 31.4803 75.2818 30.9499C76.0052 30.4247 76.3691 29.5356 76.2217 28.6556L75.3971 23.6985L78.9768 20.1742C79.6125 19.5476 79.8429 18.6146 79.5664 17.7647V17.7647ZM44.7608 33.2027C30.4665 33.2027 18.8143 44.8548 18.8143 59.1491C18.8143 68.3011 23.579 76.368 30.7498 80.9441L44.7608 78.0193L58.7717 80.9441C65.9425 76.368 70.7072 68.3011 70.7072 59.1491C70.7072 44.8548 59.0551 33.2027 44.7608 33.2027V33.2027Z" fill="url(#paint0_linear_27_442)"/>
<path d="M56.5548 56.7899C56.5548 50.2871 51.2659 44.9961 44.7609 44.9961C38.2559 44.9961 32.9671 50.2871 32.9671 56.7899C32.9671 63.2927 38.2559 68.5838 44.7609 68.5838C51.2659 68.5838 56.5548 63.2926 56.5548 56.7899ZM44.7609 68.5838C37.5429 68.5838 31.5992 73.9618 30.75 80.9437C34.8071 83.5855 39.5718 85.0952 44.7609 85.0952C49.9501 85.0952 54.7149 83.5855 58.7719 80.9437C57.9227 73.9618 51.9789 68.5838 44.7609 68.5838Z" fill="url(#paint1_linear_27_442)"/>
<defs>
<linearGradient id="paint0_linear_27_442" x1="44.7608" y1="80.9441" x2="44.7608" y2="4.58297" gradientUnits="userSpaceOnUse">
<stop stop-color="#FE3E85"/>
<stop offset="1" stop-color="#FFC4C5"/>
</linearGradient>
<linearGradient id="paint1_linear_27_442" x1="44.7609" y1="85.0952" x2="44.7609" y2="44.9961" gradientUnits="userSpaceOnUse">
<stop stop-color="#FFD9DF"/>
<stop offset="1" stop-color="white"/>
</linearGradient>
</defs>
</svg>
