<svg width="91" height="90" viewBox="0 0 91 90" fill="none" xmlns="http://www.w3.org/2000/svg">
<path d="M58.4725 24.9028H62.5692V30.6381H58.4725V24.9028ZM32.5271 24.9028H28.4304V30.6381H32.5271V24.9028ZM14.7749 77.7497C14.7749 78.8809 15.692 79.798 16.8232 79.798H74.1764C75.3076 79.798 76.2247 78.8809 76.2247 77.7497V40.197H14.7749V77.7497Z" fill="url(#paint0_linear_23_660)"/>
<path d="M40.7207 79.798H22.9685V55.9009C22.9685 54.7697 23.8856 53.8526 25.0168 53.8526H38.6723C39.8036 53.8526 40.7207 54.7697 40.7207 55.9009V79.798ZM65.9834 71.6047H46.8656C45.7344 71.6047 44.8173 70.6876 44.8173 69.5564V55.9009C44.8173 54.7697 45.7344 53.8526 46.8656 53.8526H65.9834C67.1146 53.8526 68.0317 54.7697 68.0317 55.9009V69.5564C68.0317 70.6876 67.1146 71.6047 65.9834 71.6047ZM68.0317 47.7076C68.0317 46.5764 67.1146 45.6593 65.9834 45.6593H25.0168C23.8856 45.6593 22.9685 46.5764 22.9685 47.7076C22.9685 48.8388 23.8856 49.7559 25.0168 49.7559H65.9834C67.1146 49.7559 68.0317 48.8388 68.0317 47.7076ZM78.4099 40.1971H12.5903C11.4591 40.1971 10.542 39.28 10.542 38.1487V32.6865C10.542 31.5553 11.4591 30.6382 12.5903 30.6382H78.4099C79.5411 30.6382 80.4582 31.5553 80.4582 32.6865V38.1487C80.4582 39.28 79.5411 40.1971 78.4099 40.1971ZM65.9834 24.9029H25.0168C23.8856 24.9029 22.9685 23.9858 22.9685 22.8546V11.9302C22.9685 10.7989 23.8856 9.88184 25.0168 9.88184H65.9834C67.1146 9.88184 68.0317 10.7989 68.0317 11.9302V22.8546C68.0317 23.9858 67.1146 24.9029 65.9834 24.9029Z" fill="url(#paint1_linear_23_660)"/>
<defs>
<linearGradient id="paint0_linear_23_660" x1="45.4998" y1="79.798" x2="45.4998" y2="24.9028" gradientUnits="userSpaceOnUse">
<stop stop-color="#FFF0A4"/>
<stop offset="0.9973" stop-color="#FFFDE9"/>
</linearGradient>
<linearGradient id="paint1_linear_23_660" x1="33.8514" y1="33.1912" x2="80.4582" y2="79.798" gradientUnits="userSpaceOnUse">
<stop stop-color="#FFDD00"/>
<stop offset="1" stop-color="#FF8200"/>
</linearGradient>
</defs>
</svg>
